HIERARCHY
ROOT Hips
{
	OFFSET 0.00000 0.00000 0.00000
	CHANNELS 6 Xposition Yposition Zposition Zrotation Yrotation Xrotation 
	JOINT LHipJoint
	{
		OFFSET 0 0 0
		CHANNELS 3 Zrotation Yrotation Xrotation
		JOINT LeftUpLeg
		{
			OFFSET 1.36337 -1.57426 1.11036
			CHANNELS 3 Zrotation Yrotation Xrotation
			JOINT LeftLeg
			{
				OFFSET 2.38468 -6.55187 0.00000
				CHANNELS 3 Zrotation Yrotation Xrotation
				JOINT LeftFoot
				{
					OFFSET 2.37166 -6.51609 0.00000
					CHANNELS 3 Zrotation Yrotation Xrotation
					JOINT LeftToeBase
					{
						OFFSET 0.29078 -0.79891 2.01393
						CHANNELS 3 Zrotation Yrotation Xrotation
						End Site
						{
							OFFSET 0.00000 -0.00000 1.07924
						}
					}
				}
			}
		}
	}
	JOINT RHipJoint
	{
		OFFSET 0 0 0
		CHANNELS 3 Zrotation Yrotation Xrotation
		JOINT RightUpLeg
		{
			OFFSET -1.36349 -1.57426 1.11036
			CHANNELS 3 Zrotation Yrotation Xrotation
			JOINT RightLeg
			{
				OFFSET -2.29562 -6.30717 0.00000
				CHANNELS 3 Zrotation Yrotation Xrotation
				JOINT RightFoot
				{
					OFFSET -2.40985 -6.62100 0.00000
					CHANNELS 3 Zrotation Yrotation Xrotation
					JOINT RightToeBase
					{
						OFFSET -0.23197 -0.63733 1.92232
						CHANNELS 3 Zrotation Yrotation Xrotation
						End Site
						{
							OFFSET -0.00000 -0.00000 1.01562
						}
					}
				}
			}
		}
	}
	JOINT LowerBack
	{
		OFFSET 0 0 0
		CHANNELS 3 Zrotation Yrotation Xrotation
		JOINT Spine
		{
			OFFSET -0.08565 2.03602 -0.24562
			CHANNELS 3 Zrotation Yrotation Xrotation
			JOINT Spine1
			{
				OFFSET -0.00036 2.05693 0.00216
				CHANNELS 3 Zrotation Yrotation Xrotation
				JOINT Neck
				{
					OFFSET 0 0 0
					CHANNELS 3 Zrotation Yrotation Xrotation
					JOINT Neck1
					{
						OFFSET -0.03664 1.69515 0.31789
						CHANNELS 3 Zrotation Yrotation Xrotation
						JOINT Head
						{
							OFFSET 0.00932 1.70181 -0.46013
							CHANNELS 3 Zrotation Yrotation Xrotation
							End Site
							{
								OFFSET 0.01243 1.77620 -0.19377
							}
						}
					}
				}
				JOINT LeftShoulder
				{
					OFFSET 0 0 0
					CHANNELS 3 Zrotation Yrotation Xrotation
					JOINT LeftArm
					{
						OFFSET 3.74344 0.81315 -0.36647
						CHANNELS 3 Zrotation Yrotation Xrotation
						JOINT LeftForeArm
						{
							OFFSET 4.97185 -0.00000 -0.00000
							CHANNELS 3 Zrotation Yrotation Xrotation
							JOINT LeftHand
							{
								OFFSET 3.35811 -0.00000 0.00000
								CHANNELS 3 Zrotation Yrotation Xrotation
								JOINT LeftFingerBase
								{
									OFFSET 0 0 0
									CHANNELS 3 Zrotation Yrotation Xrotation
									JOINT LeftHandIndex1
									{
										OFFSET 0.62278 -0.00000 0.00000
										CHANNELS 3 Zrotation Yrotation Xrotation
										End Site
										{
											OFFSET 0.50210 -0.00000 0.00000
										}
									}
								}
								JOINT LThumb
								{
									OFFSET 0 0 0
									CHANNELS 3 Zrotation Yrotation Xrotation
									End Site
									{
										OFFSET 0.50976 -0.00000 0.50976
									}
								}
							}
						}
					}
				}
				JOINT RightShoulder
				{
					OFFSET 0 0 0
					CHANNELS 3 Zrotation Yrotation Xrotation
					JOINT RightArm
					{
						OFFSET -3.75385 0.50666 -0.06525
						CHANNELS 3 Zrotation Yrotation Xrotation
						JOINT RightForeArm
						{
							OFFSET -4.96493 -0.00000 -0.00000
							CHANNELS 3 Zrotation Yrotation Xrotation
							JOINT RightHand
							{
								OFFSET -3.34929 -0.00000 0.00000
								CHANNELS 3 Zrotation Yrotation Xrotation
								JOINT RightFingerBase
								{
									OFFSET 0 0 0
									CHANNELS 3 Zrotation Yrotation Xrotation
									JOINT RightHandIndex1
									{
										OFFSET -0.63804 -0.00000 0.00000
										CHANNELS 3 Zrotation Yrotation Xrotation
										End Site
										{
											OFFSET -0.51441 -0.00000 0.00000
										}
									}
								}
								JOINT RThumb
								{
									OFFSET 0 0 0
									CHANNELS 3 Zrotation Yrotation Xrotation
									End Site
									{
										OFFSET -0.52226 -0.00000 0.52226
									}
								}
							}
						}
					}
				}
			}
		}
	}
}
MOTION
Frames: 16
Frame Time: .0083333
-23.1445 16.2983 -0.4368 0 0 0 0 0 0 -21 0 0 0 0 0 0 0 0 0 0 0 0 0 0 21 0 0 0 0 0 0 0 0 0 0 0 0 0 0 0 0 0 0 0 0 0 0 -16 0 0 21 0 0 11 0 0 0 -8 0 0 0 0 0 0 0 0 0 0 0 0 0 0 0 0 0 0 0 0 8 0 0 0 0 0 0 0 0 0 0 0 0 0 0 0 0 0
-23.1445 16.2983 -0.4368 169.3150 73.6717 178.5430 0.0000 0.0000 0.0000 -13.5708 -13.0747 -10.2956 2.3193 9.5016 27.3775 2.3424 5.0587 -31.0509 0.1547 2.5344 6.9852 0.0000 0.0000 0.0000 13.9139 9.6592 -3.4893 -2.1302 -9.1321 26.2094 -6.0624 -17.0823 -53.6248 -1.0449 -6.5007 18.2442 -7.3378 -2.4258 -21.5434 1.2291 -1.3761 4.9940 4.9896 -1.4728 17.7823 11.2193 15.0663 -12.8403 -9.1825 22.5628 25.9563 -1.4246 10.3546 13.1901 0.0000 0.0000 0.0000 -91.2203 -6.3369 28.2887 14.4594 -23.3876 -3.0081 -0.0000 0.0000 -8.2751 25.4670 -12.0602 -5.6829 -7.1250 0.0000 -0.0000 -1.2110 16.6675 0.8130 0.0000 0.0000 0.0000 86.8489 1.7873 15.7851 -14.0652 22.8278 -2.8533 0.0000 -0.0000 -5.8833 -10.6559 -29.1760 5.2407 7.1250 -0.0000 -0.0000 22.5827 -58.1234 -7.4999
-23.1755 16.3000 -0.4799 173.0440 73.6859 182.2060 0.0000 0.0000 0.0000 -12.5125 -12.9436 -10.9095 2.4718 9.7865 28.2881 2.4268 4.4202 -31.2530 0.1731 2.6803 7.3900 0.0000 0.0000 0.0000 14.8688 9.4971 -3.0833 -1.9606 -8.7836 25.1206 -5.7466 -18.0219 -53.0671 -0.9687 -6.2662 17.5588 -5.2129 -1.7864 -20.8499 1.0450 -1.1480 4.2136 3.7999 -1.1151 16.9006 12.4137 15.6042 -11.4845 -9.4791 23.4701 26.1299 -1.5871 10.8979 13.3147 -0.0000 0.0000 0.0000 -90.7303 -5.6721 28.5804 14.3302 -23.2048 -2.9570 -0.0000 0.0000 -7.7654 24.8327 -12.0612 -5.5231 -7.1250 0.0000 -0.0000 -1.6516 16.7348 1.1066 -0.0000 0.0000 0.0000 87.4388 0.6928 15.5119 -14.1475 22.9452 -2.8854 0.0000 -0.0000 -5.6041 -10.6052 -29.2183 5.2222 7.1250 -0.0000 -0.0000 22.6654 -58.1512 -7.5446
-23.2054 16.3081 -0.5220 176.6370 73.7554 185.7970 0.0000 0.0000 0.0000 -11.4967 -12.6724 -11.5158 2.5934 10.0058 28.9955 2.4926 3.8368 -31.3798 0.1809 2.7398 7.5553 0.0000 0.0000 0.0000 15.7627 9.4485 -2.7174 -1.8032 -8.4435 24.0694 -5.5230 -18.6004 -52.6372 -0.9341 -6.1563 17.2387 -3.0829 -1.1788 -20.0875 0.9405 -0.9223 3.6854 2.5362 -0.7630 15.6954 13.6014 16.0716 -10.1632 -9.9491 24.3590 26.2142 -1.8089 11.4171 13.4533 -0.0000 -0.0000 0.0000 -90.3778 -4.9384 28.6195 14.2818 -23.1362 -2.9379 -0.0000 0.0000 -7.3212 24.4763 -12.0086 -5.4106 -7.1250 0.0000 -0.0000 -1.8964 16.8295 1.2668 -0.0000 -0.0000 0.0000 87.9279 -0.2519 15.2471 -14.1251 22.9132 -2.8766 0.0000 -0.0000 -5.0885 -9.7025 -29.0599 4.7474 7.1250 -0.0000 -0.0000 23.4636 -57.8119 -7.6352
-23.2266 16.3206 -0.5616 180.0680 73.7148 189.3110 0.0000 0.0000 0.0000 -10.5241 -12.5825 -12.0818 2.7062 10.2035 29.6383 2.5641 3.2930 -31.5670 0.2066 2.9266 8.0745 0.0000 0.0000 0.0000 16.5993 9.3880 -2.5117 -1.6838 -8.1739 23.2434 -5.3187 -19.0474 -52.2037 -0.9088 -6.0747 17.0012 -1.0398 -0.6313 -19.4991 0.8009 -0.6960 3.1420 1.2825 -0.4505 14.6314 14.5058 16.4822 -8.9098 -10.1182 25.1060 26.1939 -1.9177 11.8816 13.4646 -0.0000 -0.0000 0.0000 -89.9490 -4.2011 28.9834 14.2829 -23.1377 -2.9384 -0.0000 0.0000 -7.4831 24.1555 -11.9225 -5.2934 -7.1250 0.0000 -0.0000 -2.1149 16.9562 1.4071 -0.0000 -0.0000 0.0000 88.4494 -1.2432 14.9308 -14.2641 23.1109 -2.9310 0.0000 -0.0000 -5.2092 -8.5368 -29.3403 4.2067 7.1250 -0.0000 -0.0000 24.8466 -57.8161 -8.1247
-23.3434 16.3399 -0.6022 182.6970 72.8309 191.2930 0.0000 0.0000 0.0000 -9.8529 -12.4610 -12.3223 2.7947 10.3550 30.1341 2.4545 2.8425 -30.7290 0.1981 2.8660 7.9058 0.0000 0.0000 0.0000 17.2380 8.3143 -2.0403 -1.5881 -7.9496 22.5611 -5.0358 -19.5240 -51.5237 -0.8519 -5.8865 16.4554 0.9759 -0.4085 -16.8877 0.7084 -0.8333 2.5846 0.0028 -0.3487 12.3976 14.9502 16.7498 -7.7372 -10.1025 25.6209 26.0364 -1.9600 12.2274 13.3062 0.0000 0.0000 0.0000 -89.7323 -3.5332 29.3420 14.2920 -23.1505 -2.9419 -0.0000 0.0000 -7.8417 23.6130 -11.8961 -5.1493 -7.1250 0.0000 -0.0000 -2.4914 17.0395 1.6536 0.0000 0.0000 0.0000 88.7389 -2.2519 15.8513 -14.2671 23.1153 -2.9322 0.0000 -0.0000 -5.0441 -10.3936 -28.5804 5.0146 7.1250 -0.0000 -0.0000 22.4183 -57.5206 -7.1117
-23.4763 16.3193 -0.5102 181.1540 69.2886 188.1850 0.0000 0.0000 0.0000 -9.7076 -13.0323 -12.2100 2.8612 10.4669 30.5022 2.1231 1.2962 -28.0512 0.1690 2.6484 7.3013 0.0000 0.0000 0.0000 17.4848 4.3761 -1.2759 -1.5233 -7.7932 22.0877 -4.9914 -19.5901 -51.4115 -0.8798 -5.9795 16.7250 -1.0097 -1.7469 -13.1630 1.4382 -2.3042 2.6235 1.6204 -1.2135 10.3568 14.8420 16.8984 -7.2019 -10.6970 26.1564 25.8544 -2.0872 12.4428 13.2930 0.0000 -0.0000 0.0000 -90.6575 -3.7120 28.9332 14.2070 -23.0299 -2.9086 -0.0000 0.0000 -7.4456 22.9032 -11.7539 -4.9189 -7.1250 0.0000 -0.0000 -2.9798 17.2622 1.9640 0.0000 -0.0000 0.0000 87.9181 -2.2202 16.6915 -14.2964 23.1568 -2.9437 0.0000 -0.0000 -5.7470 -11.2146 -28.0875 5.3331 7.1250 -0.0000 -0.0000 21.2448 -57.2385 -6.5692
-23.4667 16.3199 -0.5024 182.3850 69.3929 189.3900 0.0000 0.0000 0.0000 -9.1845 -13.0839 -12.3185 2.9135 10.5537 30.7892 2.1757 1.2174 -28.3625 0.2040 2.9079 8.0225 0.0000 0.0000 0.0000 18.0005 4.5230 -1.0861 -1.4731 -7.6695 21.7146 -4.9484 -19.6684 -51.3118 -0.9419 -6.1815 17.3120 -0.6023 -1.4245 -13.3889 1.4953 -1.9469 2.6851 1.5265 -1.0196 10.5301 15.0217 16.9947 -6.9817 -10.8206 26.3433 25.7502 -2.1305 12.5436 13.2848 0.0000 0.0000 0.0000 -90.6179 -3.7993 29.0004 14.2192 -23.0471 -2.9134 -0.0000 0.0000 -7.2430 23.0041 -11.9737 -5.0337 -7.1250 0.0000 -0.0000 -2.9193 17.0159 1.9398 0.0000 0.0000 0.0000 88.1110 -2.2697 17.1542 -14.3691 23.2599 -2.9723 0.0000 -0.0000 -5.9454 -11.9724 -27.8374 5.6551 7.1250 -0.0000 -0.0000 20.3080 -57.1643 -6.2257
-23.4617 16.3204 -0.4929 183.5340 69.4120 190.4910 0.0000 0.0000 0.0000 -8.6629 -12.9098 -12.4888 2.9486 10.6114 30.9802 2.2029 0.9168 -28.4294 0.2495 3.2141 8.8753 0.0000 0.0000 0.0000 18.4848 4.6220 -1.0111 -1.4461 -7.6018 21.5110 -4.8783 -19.8786 -51.2006 -0.9549 -6.2228 17.4323 -0.2715 -1.1733 -13.5032 1.5961 -1.6774 2.7419 1.5073 -0.8735 10.6438 14.8828 17.0847 -6.9360 -10.7257 26.4672 25.6822 -2.0608 12.6008 13.2270 -0.0000 -0.0000 0.0000 -90.6412 -3.8347 29.0538 14.2938 -23.1531 -2.9426 -0.0000 0.0000 -7.1585 23.1358 -11.9421 -5.0525 -7.1250 0.0000 -0.0000 -2.8261 17.0372 1.8764 -0.0000 -0.0000 0.0000 88.2041 -2.2227 17.4518 -14.3706 23.2620 -2.9729 0.0000 -0.0000 -5.9028 -12.4034 -27.1930 5.7392 7.1250 -0.0000 -0.0000 19.4532 -56.6488 -5.7043
-23.4617 16.3239 -0.4913 184.5090 69.5414 191.6000 0.0000 0.0000 0.0000 -8.2645 -12.8886 -12.7497 2.9789 10.6608 31.1441 2.2473 0.8177 -28.6774 0.2670 3.3242 9.1827 0.0000 0.0000 0.0000 18.7215 4.4543 -1.1909 -1.3996 -7.4840 21.1575 -4.7069 -19.9574 -50.6560 -0.9372 -6.1665 17.2683 0.0996 -0.8823 -13.7615 1.6656 -1.3594 2.7157 1.4422 -0.6999 10.7487 14.8132 17.0814 -6.9921 -10.8094 26.5159 25.6927 -2.0645 12.6082 13.2538 -0.0000 -0.0000 0.0000 -90.7427 -3.8425 28.8744 14.3314 -23.2065 -2.9574 -0.0000 0.0000 -6.9149 23.1291 -11.7306 -4.9632 -7.1250 0.0000 -0.0000 -2.8211 17.2656 1.8589 -0.0000 -0.0000 0.0000 88.2594 -2.1387 17.6473 -14.3317 23.2069 -2.9576 0.0000 -0.0000 -5.9002 -12.7054 -26.5939 5.7633 7.1250 -0.0000 -0.0000 18.7771 -56.1441 -5.2636
-23.4683 16.3318 -0.4890 185.2300 69.4292 192.4120 0.0000 0.0000 0.0000 -7.9797 -12.8588 -12.6803 2.8702 10.4819 30.5519 2.1887 1.1139 -28.4086 0.2651 3.3125 9.1499 0.0000 0.0000 0.0000 18.9235 4.3067 -1.7553 -1.4758 -7.6763 21.7351 -4.7729 -19.5220 -50.6114 -0.9512 -6.2108 17.3974 0.3769 -0.6916 -13.8349 1.7439 -1.1587 2.6584 1.4157 -0.5884 10.7184 14.8307 17.0148 -7.0345 -11.0860 26.5120 25.6395 -2.1588 12.5846 13.2922 -0.0000 0.0000 0.0000 -90.8928 -3.7863 28.6827 14.3671 -23.2571 -2.9715 -0.0000 0.0000 -6.8798 23.0113 -11.7018 -4.9232 -7.1250 0.0000 -0.0000 -2.9020 17.3079 1.9097 -0.0000 0.0000 0.0000 88.2277 -2.1051 18.1349 -14.4087 23.3159 -2.9880 0.0000 -0.0000 -6.1937 -12.8147 -27.1568 5.9273 7.1250 -0.0000 -0.0000 19.0133 -56.6992 -5.5921
-23.4716 16.3373 -0.4841 186.0940 69.2948 193.2770 0.0000 0.0000 0.0000 -7.6204 -12.7318 -12.5244 2.7553 10.2879 29.9143 2.1186 1.3564 -28.0441 0.2832 3.4224 9.4572 0.0000 0.0000 0.0000 19.2747 4.3607 -2.1502 -1.5573 -7.8757 22.3370 -4.8596 -19.3007 -50.7771 -0.9429 -6.1846 17.3210 0.6386 -0.5229 -13.8379 1.8712 -0.9884 2.6217 1.4448 -0.4940 10.6733 14.6502 16.9296 -7.0528 -11.1032 26.4113 25.5832 -2.1678 12.5300 13.2311 0.0000 -0.0000 0.0000 -91.0715 -3.6356 28.6166 14.4276 -23.3428 -2.9955 -0.0000 0.0000 -7.1712 23.0114 -11.8134 -4.9693 -7.1250 0.0000 -0.0000 -2.9070 17.1878 1.9206 0.0000 -0.0000 0.0000 88.1207 -2.1285 18.7167 -14.5741 23.5494 -3.0537 0.0000 -0.0000 -6.4815 -12.3639 -27.9847 5.8727 7.1250 -0.0000 -0.0000 20.0074 -57.3847 -6.2361
-23.7197 16.3798 -0.4466 173.6110 75.5097 179.2540 0.0000 0.0000 0.0000 -13.4410 -14.0261 -8.2671 2.5830 9.9873 28.9355 2.6535 6.0907 -33.3724 0.5710 4.8391 13.4503 0.0000 0.0000 0.0000 14.2380 7.4824 -1.6714 -1.6754 -8.1544 23.1840 -3.9834 -18.9318 -47.3496 -0.9096 -6.0774 17.0090 -2.5261 1.4912 -7.8226 0.4920 2.2311 2.4952 2.2389 0.9753 6.8954 14.5152 16.8282 -7.0895 -11.0189 26.2447 25.5644 -2.1592 12.4563 13.1683 0.0000 -0.0000 0.0000 -91.1637 -3.5000 28.5317 14.4701 -23.4028 -3.0123 -0.0000 0.0000 -7.3883 23.2046 -11.6217 -4.9358 -7.1250 0.0000 -0.0000 -2.7634 17.3758 1.8141 0.0000 -0.0000 0.0000 88.1177 -2.0487 19.0487 -14.6355 23.6359 -3.0783 0.0000 -0.0000 -6.5489 -11.6871 -28.3037 5.6016 7.1250 -0.0000 -0.0000 20.9130 -57.5392 -6.6140
-23.7270 16.3858 -0.4398 174.3340 75.2819 180.0310 0.0000 0.0000 0.0000 -13.1839 -13.7961 -8.2478 2.4652 9.7744 28.2492 2.5440 6.2516 -32.8330 0.6025 4.9689 13.8198 0.0000 0.0000 0.0000 14.4624 7.5831 -2.0663 -1.7698 -8.3691 23.8409 -4.1030 -18.7404 -47.6737 -0.9164 -6.0994 17.0731 -2.3830 1.5934 -7.7678 0.5097 2.3488 2.4268 2.1889 1.0414 6.7891 14.5303 16.7303 -7.0911 -11.1007 26.1052 25.4709 -2.2227 12.3934 13.1252 -0.0000 0.0000 0.0000 -91.1903 -3.3503 28.3933 14.4903 -23.4312 -3.0203 -0.0000 0.0000 -7.4939 23.1737 -11.6914 -4.9575 -7.1250 0.0000 -0.0000 -2.7882 17.3035 1.8349 -0.0000 0.0000 0.0000 88.1533 -1.9287 19.3854 -14.7149 23.7475 -3.1102 0.0000 -0.0000 -6.6627 -11.9116 -28.2726 5.7059 7.1250 -0.0000 -0.0000 20.6630 -57.5578 -6.5397
-23.7326 16.3876 -0.4402 174.2010 74.9627 179.8900 0.0000 0.0000 0.0000 -13.2473 -13.6480 -8.0400 2.3456 9.5516 27.5365 2.4303 6.4250 -32.2665 0.6046 4.9771 13.8432 0.0000 0.0000 0.0000 14.3733 7.3647 -2.4627 -1.8711 -8.5922 24.5278 -4.1632 -18.5561 -47.7786 -0.8952 -6.0304 16.8728 -2.4266 1.6293 -7.7271 0.5046 2.3999 2.3928 2.2122 1.0663 6.7255 14.4682 16.6711 -7.0417 -11.1176 26.0293 25.4007 -2.2453 12.3621 13.0680 0.0000 0.0000 0.0000 -91.3527 -3.1456 27.9478 14.4760 -23.4110 -3.0146 -0.0000 0.0000 -7.3815 22.8612 -11.9972 -5.0086 -7.1250 0.0000 -0.0000 -3.0199 17.0045 2.0076 0.0000 0.0000 0.0000 88.0585 -1.8962 19.9833 -14.9330 24.0527 -3.1986 0.0000 -0.0000 -7.0177 -12.8654 -28.1023 6.1405 7.1250 -0.0000 -0.0000 19.5727 -57.6015 -6.1969
-23.7376 16.3845 -0.4421 174.5380 74.6375 180.1810 0.0000 0.0000 0.0000 -13.1802 -13.7925 -8.0949 2.3623 9.5831 27.6368 2.4153 6.3066 -32.1170 0.6072 4.9876 13.8732 0.0000 0.0000 0.0000 14.5193 7.4274 -2.3040 -1.8603 -8.5689 24.4557 -4.2047 -18.8478 -48.1263 -0.8927 -6.0223 16.8492 -2.2596 1.6985 -7.6813 0.4669 2.4762 2.3815 2.0868 1.1124 6.6913 14.4358 16.6256 -7.1416 -10.9964 25.9269 25.4568 -2.2120 12.3200 13.0686 -0.0000 0.0000 0.0000 -91.4064 -2.9110 27.5456 14.4895 -23.4302 -3.0200 -0.0000 0.0000 -7.2162 22.5042 -12.1246 -4.9733 -7.1250 0.0000 -0.0000 -3.2741 16.9025 2.1843 -0.0000 0.0000 0.0000 88.0645 -1.7838 20.3677 -15.1265 24.3221 -3.2779 0.0000 -0.0000 -7.3425 -13.2268 -27.8737 6.2709 7.1250 -0.0000 -0.0000 19.0512 -57.4629 -5.9592
